# xmcd
#
# Track frame offsets:
# 150
# 21955
# 40332
# 57372
# 72505
# 87055
# 107542
# 122507
# 138670
# 156697
# 173732
# 191507
# 209492
# 228422
# 248985
# 270000
# 288170
# 320255
#
# Disc length: 4528 seconds
#
#
# Revision: 2
# Processed by: cddbd v1.5.2PL0 Copyright (c) Steve Scherf et al.
# Submitted via: FreeRIP 2.951 
#
DISCID=0011ae12
DTITLE=Various Artist - Motorcity Chartbusters Part 2
DYEAR=1900
DGENRE=
TTITLE0=Motorcity All Stars - Motown Revue
TTITLE1=Freda Payne - Band Of Gold
TTITLE2=Supremes - Nathan Jones
TTITLE3=Edwin Starr - Walkin' In Rythm
TTITLE4=Marv Johnson - I'll Pick A Rose For My Rose
TTITLE5=Syreeta - With You I'm Born Again
TTITLE6=Frankie Gaye - It Takes Two
TTITLE7=Johnny Bristol - What Does It Take To Win Your Love
TTITLE8=Babara McNair - For Once In My Life
TTITLE9=Supremes - Love Child
TTITLE10=Martha Reeves and The Vandellas - Heatwave
TTITLE11=Kim Weston - It Should Have Been Me
TTITLE12=David Ruffin - Hurt The One Your With
TTITLE13=Velvelettes - These Things Will Keep Me Lovin' You
TTITLE14=5th Dimension - Love Hangover
TTITLE15=Jimmy Ruffin - On The Rebound
TTITLE16=Supremes - Hit And Miss
TTITLE17=Syreeta - Love Fire
EXTD=RD
EXTT0=
EXTT1=
EXTT2=
EXTT3=
EXTT4=
EXTT5=
EXTT6=
EXTT7=
EXTT8=
EXTT9=
EXTT10=
EXTT11=
EXTT12=
EXTT13=
EXTT14=
EXTT15=
EXTT16=
EXTT17=
PLAYORDER=
